# xmcd
#
# Track frame offsets:
#	182
#	11460
#	22670
#	37515
#	48842
#	63730
#	73702
#	86420
#	105617
#	114677
#	125157
#	137060
#	146652
#	160522
#	173065
#	181555
#	193417
#	204462
#	219807
#	234735
#	247912
#	258605
#	273737
#	286477
#	297387
#	308527
#	320232
#	330222
#
# Disc length: 4570
#
# Revision: 7
# Processed by: cddbd v1.5.1PL0 Copyright (c) Steve Scherf et al.
# Submitted via: CDex 1.50Beta3
# Normalized: r6:DSETVAR1
#
DISCID=9211d81c
DTITLE=Various Artist - Kinda Country
DYEAR=1900
DGENRE=Country
TTITLE0=Waylon Jennings - Sally Was A Good Old Girl
TTITLE1=Conway Twitty - Have I Been Away Too Long
TTITLE2=Billie Jo Spears - Crystal Chandelier
TTITLE3=Johnny Cash - Mean Eyed Cat
TTITLE4=Willie Nelson - Face Of A Fighter
TTITLE5=Faron Young - Hello Walls
TTITLE6=Johnny Paycheck - Georgia In A Jug
TTITLE7=Dave Travis - Sweet Country
TTITLE8=Guy Mitchell - Singing The Blues
TTITLE9=Johnny Cash - You Win Again
TTITLE10=Kenny Rodgers and The First Edition - Ruby, Don't Take Your Love To Town
TTITLE11=Jerry Lee Lewis - Walk Right In
TTITLE12=Willie Nelson - Home Is Where You're Happy
TTITLE13=Oak Ridge Boys - You'll Never Walk Alone
TTITLE14=Waylon Jennings - Abilene
TTITLE15=Conway Twitty - Sittin' In A Dim Cafe
TTITLE16=George Jones - Once A day
TTITLE17=Don Fardon - Indian Reservation
TTITLE18=Jeannie C. Riley - Harper Valley P.T.A.
TTITLE19=Roy Acuff - Tennessee Waltz
TTITLE20=Donna Fargo - All That's Keeping Me Alive
TTITLE21=Kenny Rodgers and The First Edition - For The Good Times
TTITLE22=Lee Hazlewood - These Boots Are Made For Walking
TTITLE23=Hank Locklin - Send Me The Pillow
TTITLE24=Carl Perkins - Dixie Friend
TTITLE25=Patsy Cline - Today, Tomorrow And Forever
TTITLE26=Barbara Mandrel - Kaw-Liga
TTITLE27=Kitty Wells - Making Believe
EXTD=
EXTT0=
EXTT1=
EXTT2=
EXTT3=
EXTT4=
EXTT5=
EXTT6=
EXTT7=
EXTT8=
EXTT9=
EXTT10=
EXTT11=
EXTT12=
EXTT13=
EXTT14=
EXTT15=
EXTT16=
EXTT17=
EXTT18=
EXTT19=
EXTT20=
EXTT21=
EXTT22=
EXTT23=
EXTT24=
EXTT25=
EXTT26=
EXTT27=
PLAYORDER=
